<svg id="visual" viewBox="0 0 900 600" width="900" height="600" xmlns="http://www.w3.org/2000/svg" xmlns:xlink="http://www.w3.org/1999/xlink" version="1.1"><g stroke-width="1" stroke-linejoin="bevel"><path d="M429 322L486 269L380 219Z" fill="#277297" stroke="#277297"></path><path d="M486 269L508 193L380 219Z" fill="#1d4e6b" stroke="#1d4e6b"></path><path d="M277 311L389 401L429 322Z" fill="#297ea6" stroke="#297ea6"></path><path d="M498 434L579 277L486 269Z" fill="#277297" stroke="#277297"></path><path d="M498 434L486 269L429 322Z" fill="#00101c" stroke="#00101c"></path><path d="M486 269L579 277L508 193Z" fill="#0c2435" stroke="#0c2435"></path><path d="M380 219L277 311L429 322Z" fill="#00101c" stroke="#00101c"></path><path d="M605 94L500 115L508 193Z" fill="#277297" stroke="#277297"></path><path d="M508 193L500 115L380 219Z" fill="#297ea6" stroke="#297ea6"></path><path d="M579 277L585 216L508 193Z" fill="#246688" stroke="#246688"></path><path d="M285 116L262 209L380 219Z" fill="#246688" stroke="#246688"></path><path d="M380 219L262 209L277 311Z" fill="#112e42" stroke="#112e42"></path><path d="M500 115L374 90L380 219Z" fill="#246688" stroke="#246688"></path><path d="M389 401L498 434L429 322Z" fill="#00101c" stroke="#00101c"></path><path d="M277 311L275 394L389 401Z" fill="#1d4e6b" stroke="#1d4e6b"></path><path d="M389 401L364 470L498 434Z" fill="#0c2435" stroke="#0c2435"></path><path d="M183 279L275 394L277 311Z" fill="#0c2435" stroke="#0c2435"></path><path d="M374 90L285 116L380 219Z" fill="#15384f" stroke="#15384f"></path><path d="M275 394L364 470L389 401Z" fill="#0c2435" stroke="#0c2435"></path><path d="M205 123L206 212L262 209Z" fill="#1d4e6b" stroke="#1d4e6b"></path><path d="M262 209L183 279L277 311Z" fill="#15384f" stroke="#15384f"></path><path d="M364 470L502 491L498 434Z" fill="#0c2435" stroke="#0c2435"></path><path d="M498 434L630 421L579 277Z" fill="#246688" stroke="#246688"></path><path d="M206 212L183 279L262 209Z" fill="#277297" stroke="#277297"></path><path d="M585 216L605 94L508 193Z" fill="#081a28" stroke="#081a28"></path><path d="M500 115L383 0L374 90Z" fill="#00101c" stroke="#00101c"></path><path d="M708 111L605 94L585 216Z" fill="#0c2435" stroke="#0c2435"></path><path d="M285 116L205 123L262 209Z" fill="#112e42" stroke="#112e42"></path><path d="M206 212L90 266L183 279Z" fill="#1d4e6b" stroke="#1d4e6b"></path><path d="M270 0L205 123L285 116Z" fill="#205a7a" stroke="#205a7a"></path><path d="M616 481L630 421L498 434Z" fill="#205a7a" stroke="#205a7a"></path><path d="M579 277L715 295L585 216Z" fill="#19435d" stroke="#19435d"></path><path d="M517 0L383 0L500 115Z" fill="#1d4e6b" stroke="#1d4e6b"></path><path d="M374 90L270 0L285 116Z" fill="#00101c" stroke="#00101c"></path><path d="M570 0L517 0L500 115Z" fill="#0c2435" stroke="#0c2435"></path><path d="M275 394L263 500L364 470Z" fill="#277297" stroke="#277297"></path><path d="M364 600L486 600L502 491Z" fill="#277297" stroke="#277297"></path><path d="M175 437L263 500L275 394Z" fill="#15384f" stroke="#15384f"></path><path d="M502 491L616 481L498 434Z" fill="#297ea6" stroke="#297ea6"></path><path d="M711 431L715 295L630 421Z" fill="#15384f" stroke="#15384f"></path><path d="M630 421L715 295L579 277Z" fill="#081a28" stroke="#081a28"></path><path d="M710 0L570 0L605 94Z" fill="#081a28" stroke="#081a28"></path><path d="M605 94L570 0L500 115Z" fill="#0c2435" stroke="#0c2435"></path><path d="M383 0L270 0L374 90Z" fill="#1d4e6b" stroke="#1d4e6b"></path><path d="M715 295L727 226L585 216Z" fill="#0c2435" stroke="#0c2435"></path><path d="M183 279L175 437L275 394Z" fill="#205a7a" stroke="#205a7a"></path><path d="M727 226L708 111L585 216Z" fill="#297ea6" stroke="#297ea6"></path><path d="M175 437L201 503L263 500Z" fill="#0c2435" stroke="#0c2435"></path><path d="M364 600L502 491L364 470Z" fill="#277297" stroke="#277297"></path><path d="M690 498L711 431L630 421Z" fill="#0c2435" stroke="#0c2435"></path><path d="M818 287L793 212L727 226Z" fill="#081a28" stroke="#081a28"></path><path d="M183 279L80 388L175 437Z" fill="#19435d" stroke="#19435d"></path><path d="M175 437L120 496L201 503Z" fill="#0c2435" stroke="#0c2435"></path><path d="M78 195L90 266L206 212Z" fill="#277297" stroke="#277297"></path><path d="M78 195L206 212L205 123Z" fill="#1d4e6b" stroke="#1d4e6b"></path><path d="M364 600L364 470L322 600Z" fill="#205a7a" stroke="#205a7a"></path><path d="M502 491L630 600L616 481Z" fill="#297ea6" stroke="#297ea6"></path><path d="M616 481L690 498L630 421Z" fill="#205a7a" stroke="#205a7a"></path><path d="M322 600L364 470L263 500Z" fill="#205a7a" stroke="#205a7a"></path><path d="M95 64L78 195L205 123Z" fill="#19435d" stroke="#19435d"></path><path d="M210 600L322 600L263 500Z" fill="#0c2435" stroke="#0c2435"></path><path d="M630 600L690 498L616 481Z" fill="#1d4e6b" stroke="#1d4e6b"></path><path d="M270 0L171 0L205 123Z" fill="#112e42" stroke="#112e42"></path><path d="M0 322L80 388L90 266Z" fill="#19435d" stroke="#19435d"></path><path d="M90 266L80 388L183 279Z" fill="#15384f" stroke="#15384f"></path><path d="M818 287L727 226L715 295Z" fill="#277297" stroke="#277297"></path><path d="M727 226L793 212L708 111Z" fill="#297ea6" stroke="#297ea6"></path><path d="M818 287L715 295L822 376Z" fill="#00101c" stroke="#00101c"></path><path d="M171 0L95 64L205 123Z" fill="#277297" stroke="#277297"></path><path d="M80 388L120 496L175 437Z" fill="#205a7a" stroke="#205a7a"></path><path d="M201 503L210 600L263 500Z" fill="#081a28" stroke="#081a28"></path><path d="M770 0L710 0L708 111Z" fill="#0c2435" stroke="#0c2435"></path><path d="M708 111L710 0L605 94Z" fill="#19435d" stroke="#19435d"></path><path d="M822 376L715 295L711 431Z" fill="#19435d" stroke="#19435d"></path><path d="M486 600L630 600L502 491Z" fill="#297ea6" stroke="#297ea6"></path><path d="M809 470L822 376L711 431Z" fill="#081a28" stroke="#081a28"></path><path d="M120 496L210 600L201 503Z" fill="#112e42" stroke="#112e42"></path><path d="M809 470L711 431L690 498Z" fill="#081a28" stroke="#081a28"></path><path d="M793 212L808 69L708 111Z" fill="#081a28" stroke="#081a28"></path><path d="M900 162L808 69L793 212Z" fill="#277297" stroke="#277297"></path><path d="M80 388L0 474L120 496Z" fill="#246688" stroke="#246688"></path><path d="M0 176L0 322L90 266Z" fill="#0c2435" stroke="#0c2435"></path><path d="M0 176L90 266L78 195Z" fill="#0c2435" stroke="#0c2435"></path><path d="M808 69L770 0L708 111Z" fill="#277297" stroke="#277297"></path><path d="M0 87L0 176L78 195Z" fill="#297ea6" stroke="#297ea6"></path><path d="M763 600L809 470L690 498Z" fill="#00101c" stroke="#00101c"></path><path d="M171 0L69 0L95 64Z" fill="#1d4e6b" stroke="#1d4e6b"></path><path d="M95 64L0 87L78 195Z" fill="#19435d" stroke="#19435d"></path><path d="M0 322L0 387L80 388Z" fill="#00101c" stroke="#00101c"></path><path d="M120 496L62 600L210 600Z" fill="#081a28" stroke="#081a28"></path><path d="M69 0L0 87L95 64Z" fill="#112e42" stroke="#112e42"></path><path d="M630 600L736 600L690 498Z" fill="#1d4e6b" stroke="#1d4e6b"></path><path d="M822 376L900 280L818 287Z" fill="#19435d" stroke="#19435d"></path><path d="M818 287L900 280L793 212Z" fill="#19435d" stroke="#19435d"></path><path d="M900 408L900 280L822 376Z" fill="#0c2435" stroke="#0c2435"></path><path d="M0 387L0 474L80 388Z" fill="#00101c" stroke="#00101c"></path><path d="M736 600L763 600L690 498Z" fill="#081a28" stroke="#081a28"></path><path d="M809 470L900 408L822 376Z" fill="#297ea6" stroke="#297ea6"></path><path d="M900 280L900 162L793 212Z" fill="#246688" stroke="#246688"></path><path d="M808 69L900 0L770 0Z" fill="#15384f" stroke="#15384f"></path><path d="M0 474L62 600L120 496Z" fill="#19435d" stroke="#19435d"></path><path d="M900 519L900 408L809 470Z" fill="#19435d" stroke="#19435d"></path><path d="M69 0L0 0L0 87Z" fill="#19435d" stroke="#19435d"></path><path d="M900 162L900 104L808 69Z" fill="#297ea6" stroke="#297ea6"></path><path d="M763 600L900 519L809 470Z" fill="#246688" stroke="#246688"></path><path d="M900 104L900 0L808 69Z" fill="#277297" stroke="#277297"></path><path d="M0 474L0 600L62 600Z" fill="#112e42" stroke="#112e42"></path><path d="M763 600L900 600L900 519Z" fill="#1d4e6b" stroke="#1d4e6b"></path></g></svg>